<svg t="1730457479851" class="icon" viewBox="0 0 1024 1024" version="1.1" xmlns="http://www.w3.org/2000/svg" p-id="21291" width="16" height="16"><path d="M969.142857 325.485714c12.8 32.914286 5.485714 71.314286-18.285714 96.914286-45.714286 49.371429-45.714286 128 0 179.2 23.771429 25.6 31.085714 64 18.285714 96.914286a465.334857 465.334857 0 0 1-67.657143 117.028571c-21.942857 27.428571-58.514286 40.228571-91.428571 32.914286-32.914286-7.314286-65.828571-1.828571-95.085714 14.628571s-49.371429 43.885714-60.342858 74.971429c-10.971429 34.742857-40.228571 58.514286-74.971428 64-21.942857 1.828571-45.714286 3.657143-67.657143 3.657143-21.942857 0-45.714286-1.828571-67.657143-5.485715A93.037714 93.037714 0 0 1 369.371429 936.228571a132.388571 132.388571 0 0 0-155.428572-89.6c-34.742857 7.314286-69.485714-5.485714-91.428571-32.914285-27.428571-36.571429-51.2-74.971429-67.657143-117.028572A93.915429 93.915429 0 0 1 73.142857 599.771429c45.714286-49.371429 45.714286-128 0-179.2a93.915429 93.915429 0 0 1-18.285714-96.914286c16.457143-42.057143 40.228571-82.285714 67.657143-117.028572 21.942857-27.428571 58.514286-40.228571 93.257143-32.914285 32.914286 7.314286 65.828571 1.828571 95.085714-14.628572s49.371429-43.885714 60.342857-74.971428c10.971429-34.742857 40.228571-58.514286 74.971429-64a558.299429 558.299429 0 0 1 135.314285 0c34.742857 5.485714 64 29.257143 74.971429 64 9.142857 31.085714 31.085714 58.514286 60.342857 74.971428 29.257143 16.457143 62.171429 21.942857 95.085714 14.628572 34.742857-7.314286 71.314286 5.485714 91.428572 32.914285 25.6 38.4 49.371429 76.8 65.828571 118.857143z m-67.657143 27.428572c-14.628571-34.742857-34.742857-69.485714-58.514285-98.742857-3.657143-5.485714-10.971429-7.314286-18.285715-5.485715-49.371429 10.971429-102.4 3.657143-146.285714-21.942857A198.144 198.144 0 0 1 585.142857 109.714286c-1.828571-7.314286-7.314286-12.8-14.628571-12.8a405.211429 405.211429 0 0 0-115.2 0c-7.314286 1.828571-12.8 5.485714-14.628572 12.8-14.628571 49.371429-47.542857 91.428571-93.257143 117.028571-43.885714 25.6-96.914286 32.914286-148.114285 21.942857a20.333714 20.333714 0 0 0-18.285715 5.485715c-23.771429 31.085714-43.885714 64-58.514285 98.742857-1.828571 7.314286-1.828571 14.628571 3.657143 20.114285a207.286857 207.286857 0 0 1 0 277.942858 17.481143 17.481143 0 0 0-3.657143 18.285714c14.628571 36.571429 34.742857 69.485714 56.685714 98.742857 3.657143 5.485714 12.8 7.314286 18.285714 7.314286 104.228571-23.771429 208.457143 38.4 241.371429 138.971428 1.828571 7.314286 7.314286 10.971429 14.628571 12.8 18.285714 1.828571 38.4 3.657143 56.685715 3.657143 20.114286 0 38.4-1.828571 58.514285-3.657143 7.314286-1.828571 12.8-5.485714 14.628572-12.8 14.628571-49.371429 47.542857-91.428571 93.257143-117.028571 43.885714-25.6 96.914286-32.914286 148.114285-21.942857 7.314286 1.828571 14.628571-1.828571 18.285715-5.485715 23.771429-31.085714 43.885714-64 58.514285-98.742857 1.828571-5.485714 1.828571-14.628571-3.657143-20.114285a207.286857 207.286857 0 0 1 0-277.942858c5.485714-5.485714 5.485714-12.8 3.657143-20.114285zM504.685714 694.857143A183.369143 183.369143 0 0 1 321.828571 512c0-100.571429 82.285714-182.857143 182.857143-182.857143S687.542857 411.428571 687.542857 512 607.085714 694.857143 504.685714 694.857143z m0-73.142857c60.342857 0 109.714286-49.371429 109.714286-109.714286s-49.371429-109.714286-109.714286-109.714286-109.714286 49.371429-109.714285 109.714286 49.371429 109.714286 109.714285 109.714286z" fill="#000000" p-id="21292"></path></svg>